STARTFONT 2.1
FONT -FontForge-Seven Segment-Book-R-Normal--82-790-75-75-P-363-ISO10646-1
SIZE 79 75 75
FONTBOUNDINGBOX 36 57 0 0
COMMENT "Generated by fontforge, http://fontforge.sourceforge.net"
STARTPROPERTIES 34
FOUNDRY "FontForge"
FAMILY_NAME "Seven Segment"
WEIGHT_NAME "Book"
SLANT "R"
SETWIDTH_NAME "Normal"
ADD_STYLE_NAME ""
PIXEL_SIZE 82
POINT_SIZE 790
RESOLUTION_X 75
RESOLUTION_Y 75
SPACING "P"
AVERAGE_WIDTH 363
CHARSET_REGISTRY "ISO10646"
CHARSET_ENCODING "1"
FONTNAME_REGISTRY ""
CHARSET_COLLECTIONS "ISO10646-1"
FONT_NAME "SevenSegmentRegular"
FACE_NAME "Seven Segment"
FONT_VERSION "1.002;Fontself Maker 3.0.2"
FONT_ASCENT 66
FONT_DESCENT 16
UNDERLINE_POSITION -29
UNDERLINE_THICKNESS 5
RAW_ASCENT 799
RAW_DESCENT 200
RELATIVE_WEIGHT 40
RELATIVE_SETWIDTH 50
SUPERSCRIPT_X 0
SUPERSCRIPT_Y 39
SUPERSCRIPT_SIZE 57
SUBSCRIPT_X 0
SUBSCRIPT_Y 11
SUBSCRIPT_SIZE 57
AVG_LOWERCASE_WIDTH 410
ENDPROPERTIES
CHARS 13
STARTCHAR period
ENCODING 46
SWIDTH 183 0
DWIDTH 15 0
BBX 5 8 5 0
BITMAP
20
70
F8
F8
F8
F8
70
20
ENDCHAR
STARTCHAR zero
ENCODING 48
SWIDTH 501 0
DWIDTH 41 0
BBX 31 57 5 0
BITMAP
03FFFF80
07FFFFC0
0FFFFFE0
07FFFFC0
23FFFF88
7000001C
F800003E
F800003E
F800003E
F800003E
F800003E
F800003E
F800003E
F800003E
F800003E
F800003E
F800003E
F800003E
F800003E
F800003E
F800003E
F800003E
F800003E
F800003E
F800003E
7000001C
20000008
00000000
00000000
00000000
20000008
7000001C
F800003E
F800003E
F800003E
F800003E
F800003E
F800003E
F800003E
F800003E
F800003E
F800003E
F800003E
F800003E
F800003E
F800003E
F800003E
F800003E
F800003E
F800003E
F800003E
7000001C
23FFFF88
07FFFFC0
0FFFFFE0
07FFFFC0
03FFFF80
ENDCHAR
STARTCHAR one
ENCODING 49
SWIDTH 183 0
DWIDTH 15 0
BBX 5 57 5 0
BITMAP
20
70
F8
F8
F8
F8
F8
F8
F8
F8
F8
F8
F8
F8
F8
F8
F8
F8
F8
F8
F8
F8
F8
F8
F8
70
20
00
00
20
20
70
F8
F8
F8
F8
F8
F8
F8
F8
F8
F8
F8
F8
F8
F8
F8
F8
F8
F8
F8
F8
F8
F8
F8
70
20
ENDCHAR
STARTCHAR two
ENCODING 50
SWIDTH 501 0
DWIDTH 41 0
BBX 31 57 5 0
BITMAP
03FFFF80
07FFFFC0
0FFFFFE0
07FFFFC0
23FFFF80
70000000
F8000000
F8000000
F8000000
F8000000
F8000000
F8000000
F8000000
F8000000
F8000000
F8000000
F8000000
F8000000
F8000000
F8000000
F8000000
F8000000
F8000000
F8000000
F8000000
70000000
23FFFF80
07FFFFC0
0FFFFFE0
07FFFFC0
03FFFF88
0000001C
0000003E
0000003E
0000003E
0000003E
0000003E
0000003E
0000003E
0000003E
0000003E
0000003E
0000003E
0000003E
0000003E
0000003E
0000003E
0000003E
0000003E
0000003E
0000003E
0000001C
03FFFF88
07FFFFC0
0FFFFFE0
07FFFFC0
03FFFF80
ENDCHAR
STARTCHAR three
ENCODING 51
SWIDTH 454 0
DWIDTH 37 0
BBX 27 57 5 0
BITMAP
03FFFF80
07FFFFC0
0FFFFFE0
07FFFFC0
23FFFF80
70000000
F8000000
F8000000
F8000000
F8000000
F8000000
F8000000
F8000000
F8000000
F8000000
F8000000
F8000000
F8000000
F8000000
F8000000
F8000000
F8000000
F8000000
F8000000
F8000000
70000000
23FFFF80
07FFFFC0
0FFFFFE0
07FFFFC0
23FFFF80
70000000
F8000000
F8000000
F8000000
F8000000
F8000000
F8000000
F8000000
F8000000
F8000000
F8000000
F8000000
F8000000
F8000000
F8000000
F8000000
F8000000
F8000000
F8000000
F8000000
70000000
23FFFF80
07FFFFC0
0FFFFFE0
07FFFFC0
03FFFF80
ENDCHAR
STARTCHAR four
ENCODING 52
SWIDTH 501 0
DWIDTH 41 0
BBX 31 57 5 0
BITMAP
20000008
7000001C
F800003E
F800003E
F800003E
F800003E
F800003E
F800003E
F800003E
F800003E
F800003E
F800003E
F800003E
F800003E
F800003E
F800003E
F800003E
F800003E
F800003E
F800003E
F800003E
F800003E
F800003E
F800003E
F800003E
7000001C
23FFFF88
07FFFFC0
0FFFFFE0
07FFFFC0
23FFFF80
70000000
F8000000
F8000000
F8000000
F8000000
F8000000
F8000000
F8000000
F8000000
F8000000
F8000000
F8000000
F8000000
F8000000
F8000000
F8000000
F8000000
F8000000
F8000000
F8000000
F8000000
F8000000
F8000000
F8000000
70000000
20000000
ENDCHAR
STARTCHAR five
ENCODING 53
SWIDTH 501 0
DWIDTH 41 0
BBX 31 57 5 0
BITMAP
03FFFF80
07FFFFC0
0FFFFFE0
07FFFFC0
03FFFF88
0000001C
0000003E
0000003E
0000003E
0000003E
0000003E
0000003E
0000003E
0000003E
0000003E
0000003E
0000003E
0000003E
0000003E
0000003E
0000003E
0000003E
0000003E
0000003E
0000003E
0000001C
03FFFF88
07FFFFC0
0FFFFFE0
07FFFFC0
23FFFF80
70000000
F8000000
F8000000
F8000000
F8000000
F8000000
F8000000
F8000000
F8000000
F8000000
F8000000
F8000000
F8000000
F8000000
F8000000
F8000000
F8000000
F8000000
F8000000
F8000000
70000000
23FFFF80
07FFFFC0
0FFFFFE0
07FFFFC0
03FFFF80
ENDCHAR
STARTCHAR six
ENCODING 54
SWIDTH 501 0
DWIDTH 41 0
BBX 31 57 5 0
BITMAP
03FFFF80
07FFFFC0
0FFFFFE0
07FFFFC0
03FFFF88
0000001C
0000003E
0000003E
0000003E
0000003E
0000003E
0000003E
0000003E
0000003E
0000003E
0000003E
0000003E
0000003E
0000003E
0000003E
0000003E
0000003E
0000003E
0000003E
0000003E
0000001C
03FFFF88
07FFFFC0
0FFFFFE0
07FFFFC0
23FFFF88
7000001C
F800003E
F800003E
F800003E
F800003E
F800003E
F800003E
F800003E
F800003E
F800003E
F800003E
F800003E
F800003E
F800003E
F800003E
F800003E
F800003E
F800003E
F800003E
F800003E
7000001C
23FFFF88
07FFFFC0
0FFFFFE0
07FFFFC0
03FFFF80
ENDCHAR
STARTCHAR seven
ENCODING 55
SWIDTH 454 0
DWIDTH 37 0
BBX 27 57 5 0
BITMAP
03FFFF80
07FFFFC0
0FFFFFE0
07FFFFC0
23FFFF80
70000000
F8000000
F8000000
F8000000
F8000000
F8000000
F8000000
F8000000
F8000000
F8000000
F8000000
F8000000
F8000000
F8000000
F8000000
F8000000
F8000000
F8000000
F8000000
F8000000
70000000
20000000
00000000
00000000
00000000
20000000
70000000
F8000000
F8000000
F8000000
F8000000
F8000000
F8000000
F8000000
F8000000
F8000000
F8000000
F8000000
F8000000
F8000000
F8000000
F8000000
F8000000
F8000000
F8000000
F8000000
F8000000
F8000000
F8000000
F8000000
70000000
20000000
ENDCHAR
STARTCHAR eight
ENCODING 56
SWIDTH 501 0
DWIDTH 41 0
BBX 31 57 5 0
BITMAP
03FFFF80
07FFFFC0
0FFFFFE0
07FFFFC0
23FFFF88
7000001C
F800003E
F800003E
F800003E
F800003E
F800003E
F800003E
F800003E
F800003E
F800003E
F800003E
F800003E
F800003E
F800003E
F800003E
F800003E
F800003E
F800003E
F800003E
F800003E
7000001C
23FFFF88
07FFFFC0
0FFFFFE0
07FFFFC0
23FFFF88
7000001C
F800003E
F800003E
F800003E
F800003E
F800003E
F800003E
F800003E
F800003E
F800003E
F800003E
F800003E
F800003E
F800003E
F800003E
F800003E
F800003E
F800003E
F800003E
F800003E
7000001C
23FFFF88
07FFFFC0
0FFFFFE0
07FFFFC0
03FFFF80
ENDCHAR
STARTCHAR nine
ENCODING 57
SWIDTH 501 0
DWIDTH 41 0
BBX 31 57 5 0
BITMAP
03FFFF80
07FFFFC0
0FFFFFE0
07FFFFC0
23FFFF88
7000001C
F800003E
F800003E
F800003E
F800003E
F800003E
F800003E
F800003E
F800003E
F800003E
F800003E
F800003E
F800003E
F800003E
F800003E
F800003E
F800003E
F800003E
F800003E
F800003E
7000001C
23FFFF88
07FFFFC0
0FFFFFE0
07FFFFC0
23FFFF80
70000000
F8000000
F8000000
F8000000
F8000000
F8000000
F8000000
F8000000
F8000000
F8000000
F8000000
F8000000
F8000000
F8000000
F8000000
F8000000
F8000000
F8000000
F8000000
F8000000
70000000
23FFFF80
07FFFFC0
0FFFFFE0
07FFFFC0
03FFFF80
ENDCHAR
STARTCHAR c
ENCODING 99
SWIDTH 501 0
DWIDTH 41 0
BBX 32 37 0 0
BITMAP
0000000C
0000001E
0000003F
0000003F
0000003F
0000001E
3FFFF80C
7FFFFC00
FFFFFE00
FFFFFC00
7FFFF880
000001C0
000003E0
000003E0
000003E0
000003E0
000003E0
000003E0
000003E0
000003E0
000003E0
000003E0
000003E0
000003E0
000003E0
000003E0
000003E0
000003E0
000003E0
000003E0
000003E0
000001C0
3FFFF880
7FFFFC00
FFFFFE00
7FFFFC00
3FFFF800
ENDCHAR
STARTCHAR degree
ENCODING 176
SWIDTH 501 0
DWIDTH 41 0
BBX 5 5 27 26
BITMAP
60
F0
F8
70
20
ENDCHAR
ENDFONT
